<?xml version="1.0" standalone="no"?>
<!DOCTYPE svg PUBLIC "-//W3C//DTD SVG 20010904//EN"
 "http://www.w3.org/TR/2001/REC-SVG-20010904/DTD/svg10.dtd">
<svg version="1.0" xmlns="http://www.w3.org/2000/svg"
 width="245.000000pt" height="245.000000pt" viewBox="0 0 245.000000 245.000000"
 preserveAspectRatio="xMidYMid meet">
<metadata>
Created by potrace 1.14, written by Peter Selinger 2001-2017
</metadata>
<g transform="translate(0.000000,245.000000) scale(0.100000,-0.100000)"
fill="#000000" stroke="none">
<path d="M1124 2384 l-101 -64 -12 -123 c-12 -125 -39 -265 -67 -350 -12 -36
-20 -47 -32 -43 -10 3 -66 14 -126 26 -126 25 -205 53 -296 105 -36 21 -69 38
-75 38 -5 0 -56 -29 -113 -64 l-102 -64 0 -127 0 -127 72 -40 c86 -48 168
-122 276 -248 l79 -92 -136 -136 c-98 -98 -158 -149 -214 -181 l-77 -46 0
-128 0 -128 33 -20 c17 -10 66 -38 107 -60 l75 -41 76 39 c76 39 226 87 358
115 40 8 74 15 76 15 7 0 36 -98 55 -182 10 -48 24 -143 31 -211 l12 -124 98
-61 c55 -34 104 -62 109 -62 6 0 51 28 100 62 l89 61 6 66 c16 182 73 451 95
451 5 0 39 -7 77 -14 128 -28 278 -77 352 -117 41 -22 79 -39 86 -37 6 2 54
28 108 58 l97 55 0 135 0 135 -72 40 c-51 28 -112 80 -212 176 l-140 137 59
72 c82 100 214 221 296 270 l69 42 0 128 0 127 -107 66 c-92 57 -109 65 -123
53 -19 -17 -103 -60 -172 -87 -45 -18 -319 -82 -325 -76 -1 1 -13 41 -26 87
-25 87 -52 241 -63 362 l-6 68 -94 65 c-52 36 -95 65 -96 64 -2 0 -48 -30
-104 -65z m174 -69 l62 -45 0 -79 c0 -84 18 -197 52 -324 11 -43 19 -80 17
-82 -3 -2 -39 -7 -80 -11 l-76 -6 -17 68 c-10 38 -21 107 -24 154 -5 73 -7 80
-14 50 -4 -19 -12 -71 -18 -115 -5 -44 -14 -97 -20 -119 l-12 -39 -76 7 c-42
4 -78 9 -80 11 -2 2 6 34 17 72 27 90 51 228 58 334 l6 86 66 41 c36 23 68 42
71 42 4 0 34 -20 68 -45z m-815 -461 c221 -94 510 -154 740 -154 225 0 488 54
721 147 l88 36 69 -34 c54 -25 66 -36 57 -44 -25 -23 -909 -536 -916 -532 -23
13 -938 550 -941 553 -4 4 99 54 112 54 4 0 36 -12 70 -26z m740 -643 c4 -4 6
-260 5 -569 l-3 -561 -65 37 -65 38 -7 95 c-17 230 -110 539 -221 733 -150
262 -316 455 -509 594 l-78 56 0 67 0 67 468 -275 c257 -151 470 -278 475
-282z m-503 -123 l44 -71 -115 -111 c-63 -61 -140 -126 -171 -144 l-58 -32 0
-85 c0 -47 -3 -85 -6 -85 -3 0 -35 16 -70 36 l-64 36 0 88 0 88 109 82 c102
75 200 169 253 240 12 17 24 30 28 30 3 0 25 -32 50 -72z m1109 7 c67 -83 123
-133 245 -219 l97 -69 -70 -39 -71 -40 -48 28 c-60 34 -199 151 -257 216 l-44
49 42 69 c23 38 45 70 48 70 3 0 29 -29 58 -65z"/>
</g>
</svg>
